<?xml version="1.0" encoding="iso-8859-1"?>
<!-- Uploaded to: SVG Repo, www.svgrepo.com, Generator: SVG Repo Mixer Tools -->
<svg version="1.1" id="Layer_1" xmlns="http://www.w3.org/2000/svg" xmlns:xlink="http://www.w3.org/1999/xlink" 
	 viewBox="0 0 511.999 511.999" xml:space="preserve">
<path style="fill:#EAA0E3;" d="M393.093,287.076H277.897v-85.761c0-29.574,23.974-53.548,53.548-53.548h8.103
	c29.574,0,53.548,23.974,53.548,53.548v85.761H393.093z"/>
<path style="fill:#D57CD4;" d="M347.913,149.125c-4.001-0.88-8.153-1.357-12.418-1.357l0,0c-31.811,0-57.598,25.788-57.598,57.598
	v81.709h24.836v-81.709C302.732,177.821,322.073,154.806,347.913,149.125z"/>
<polygon style="fill:#74C194;" points="402.582,387.489 268.408,387.489 277.897,287.076 393.093,287.076 "/>
<circle style="fill:#F9DCA4;" cx="142.814" cy="218.881" r="55.929"/>
<path style="fill:#E7C080;" d="M116.215,218.885c0-25.813,17.492-47.529,41.264-53.974c-4.675-1.268-9.589-1.956-14.665-1.956
	c-30.889,0-55.929,25.041-55.929,55.929s25.041,55.929,55.929,55.929c5.076,0,9.99-0.688,14.665-1.956
	C133.707,266.414,116.215,244.698,116.215,218.885z"/>
<path style="fill:#EAA0E3;" d="M189.035,386.602h-92.44v-65.567c0-25.526,20.693-46.22,46.22-46.22l0,0
	c25.526,0,46.22,20.693,46.22,46.22v65.567H189.035z"/>
<path style="fill:#D57CD4;" d="M152.029,275.736c-2.978-0.602-6.059-0.921-9.214-0.921l0,0c-25.526,0-46.22,20.693-46.22,46.22
	v65.567h18.428v-65.567C115.024,298.664,130.917,280.007,152.029,275.736z"/>
<g>
	<path style="fill:#F9DCA4;" d="M114.997,427.251c5.036,27.776,13.821,62.286,27.824,76.288v-76.288"/>
	<path style="fill:#F9DCA4;" d="M170.632,427.251c-5.036,27.776-13.821,62.286-27.812,76.288v-92.062"/>
</g>
<rect x="96.597" y="386.603" style="fill:#F4C063;" width="92.439" height="40.645"/>
<rect x="96.597" y="386.603" style="fill:#D5A03C;" width="20.142" height="40.645"/>
<g>
	<path style="fill:#F9DCA4;" d="M334.189,387.49v116.052c-15.763-15.763-24.911-57.577-29.547-86.457
		c-2.73-17.061-3.883-29.595-3.883-29.595L334.189,387.49L334.189,387.49z"/>
	<circle style="fill:#F9DCA4;" cx="335.106" cy="78.119" r="69.654"/>
</g>
<path style="fill:#E7C080;" d="M297.166,78.115c0-33.011,22.972-60.639,53.798-67.819c-5.097-1.188-10.4-1.835-15.856-1.835
	c-38.469,0-69.653,31.185-69.653,69.654s31.185,69.654,69.653,69.654c5.458,0,10.76-0.648,15.856-1.834
	C320.138,138.753,297.166,111.126,297.166,78.115z"/>
<path style="fill:#F9DCA4;" d="M367.63,387.49c0,0-1.153,12.535-3.883,29.595c-4.635,28.88-13.796,70.694-29.559,86.457V387.49
	H367.63z"/>
<g>
	<path style="fill:#4D4D4D;" d="M404.762,78.115c0,0,11.237,83.69-11.661,127.252c0-15.908-6.444-30.311-16.867-40.735
		s-24.827-16.867-40.735-16.867C373.783,147.559,404.762,116.447,404.762,78.115z"/>
	<path style="fill:#4D4D4D;" d="M404.762,78.115c-77.307,7.924-118.612-49.532-118.612-49.532
		c12.584-12.437,29.875-20.118,48.962-20.118C373.577,8.464,404.762,39.648,404.762,78.115z"/>
</g>
<polyline style="fill:#54AC7C;" points="302.732,287.076 301.925,387.489 268.408,387.489 277.897,287.076 "/>
<path style="fill:#E7C080;" d="M367.63,387.49c0,0-1.153,12.535-3.883,29.595h-59.106c-2.73-17.061-3.883-29.595-3.883-29.595
	L367.63,387.49L367.63,387.49z"/>
<path style="fill:#EC589B;" d="M435.277,174.903L435.277,174.903c-17.842-17.842-46.769-17.842-64.612,0l-48.658,48.658
	c-17.842,17.842-17.842,46.769,0,64.612l0,0c17.842,17.842,46.769,17.842,64.612,0l48.658-48.658
	C453.118,221.672,453.118,192.744,435.277,174.903z"/>
<path style="fill:#D3468D;" d="M342.876,290.992L342.876,290.992c-17.842-17.842-17.842-46.769,0-64.612l48.658-48.658
	c7.779-7.779,17.667-12.164,27.823-13.16c-16.329-6.264-35.528-2.826-48.692,10.34l-48.658,48.658
	c-17.842,17.842-17.842,46.769,0,64.612l0,0c10.062,10.062,23.651,14.447,36.788,13.16
	C352.995,299.106,347.553,295.669,342.876,290.992z"/>
<path style="fill:#F9DCA4;" d="M370.237,210.764c-9.21-9.21-9.21-24.195,0-33.405l0,0c9.21-9.21,24.195-9.21,33.405,0
	c9.21,9.21,9.21,24.195,0,33.405l0,0C394.432,219.974,379.447,219.974,370.237,210.764z"/>
<path d="M291.797,75.013c-2.79,2.119-4.016,5.846-2.988,9.201c1.081,3.529,4.404,6.005,8.098,6.005c4.145,0,7.731-3.133,8.366-7.217
	C306.411,75.67,297.676,70.548,291.797,75.013z"/>
<path d="M129.209,211.421c0.389-3.279-1.189-6.597-4.044-8.288c-3.243-1.922-7.435-1.464-10.179,1.127
	c-5.426,5.127-1.647,14.582,5.828,14.582C125.023,218.841,128.712,215.608,129.209,211.421z"/>
<path d="M173.229,211.215c0.721-7.542-8.464-12.175-14.095-7.097c-5.623,5.072-1.902,14.723,5.676,14.723
	C169.098,218.841,172.82,215.491,173.229,211.215z"/>
<path d="M457.119,207.208c0-14.463-5.633-28.061-15.86-38.288c-7.413-7.413-16.599-12.395-26.598-14.586
	c3.461-36.711-0.889-72.506-1.457-76.922c-0.181-20.603-8.274-39.946-22.864-54.535c-3.303-3.304-8.66-3.303-11.964,0
	c-3.304,3.304-3.304,8.661,0.001,11.966c9.687,9.686,15.708,22.053,17.411,35.424c-26.73,1.153-51.616-5.744-74.072-20.608
	c-11.046-7.311-19.031-15.028-23.735-20.143c10.305-7.891,23.174-12.595,37.127-12.595c8.263,0,16.277,1.617,23.815,4.806
	c4.305,1.82,9.269-0.193,11.088-4.497c1.821-4.304-0.193-9.267-4.495-11.088C355.878,2.067,345.649,0,335.108,0
	c-43.073,0-78.115,35.041-78.115,78.115c0,30.465,17.542,56.895,43.044,69.766c-17.988,10.615-30.168,30.045-30.569,52.31
	c-11.907,50.397-32.949,125.119-42.9,135.069c-0.636,0.636-0.879,0.606-1.365,0.538c-7.347-0.984-22.392-19.308-31.991-35.972
	c-4.174-9.882-11.175-18.29-19.98-24.207c20.205-10.876,33.972-32.226,33.972-56.734c0-35.505-28.886-64.391-64.391-64.391
	c-12.936,0-25.414,3.823-36.086,11.055c-3.868,2.622-4.879,7.882-2.257,11.75c2.621,3.868,7.881,4.878,11.75,2.257
	c7.859-5.326,17.055-8.141,26.593-8.141c26.175,0,47.469,21.295,47.469,47.469s-21.295,47.468-47.469,47.468
	s-47.469-21.294-47.469-47.468c0-7.893,1.974-15.704,5.708-22.59c2.227-4.107,0.703-9.243-3.405-11.47
	c-4.108-2.226-9.242-0.703-11.47,3.405c-5.072,9.354-7.753,19.955-7.753,30.655c0,24.509,13.768,45.859,33.972,56.734
	c-13.785,9.263-23.136,24.629-24.16,42.197c-7.728,9.573-33.356,45.837-33.356,105.776c0,4.672,3.788,8.461,8.461,8.461
	s8.461-3.788,8.461-8.461c0-32.308,8.313-57.098,16.333-73.513v36.523v40.65c0,4.672,3.788,8.461,8.461,8.461h11.391
	c5.075,25.816,11.308,45.675,18.619,59.366h-4.473c-4.672,0-8.461,3.788-8.461,8.461s3.788,8.461,8.461,8.461h41.363
	c4.672,0,8.461-3.788,8.461-8.461s-3.788-8.461-8.461-8.461h-4.466c7.308-13.693,13.538-33.551,18.613-59.366h11.391
	c4.672,0,8.461-3.788,8.461-8.461v-40.65v-51.523c7.662,8.7,16.68,16.311,25.456,17.49c0.892,0.12,1.771,0.179,2.637,0.179
	c4.87,0,9.304-1.882,12.946-5.523c5.018-5.018,13.68-18.741,30.906-79.709v19.156l-9.461,100.014
	c-0.225,2.372,0.562,4.729,2.165,6.491c1.604,1.762,3.876,2.767,6.259,2.767h24.732c2.707,23.828,12.169,90.669,35.076,113.577
	c1.62,1.619,3.784,2.478,5.986,2.478c1.09,0,2.188-0.211,3.235-0.644c1.048-0.434,1.959-1.077,2.731-1.849l0.015,0.015
	c22.908-22.908,32.369-89.75,35.076-113.577h27.333c2.382,0,4.656-1.005,6.259-2.767c1.603-1.762,2.389-4.12,2.165-6.491
	l-3.396-35.828c-0.441-4.652-4.543-8.058-9.222-7.625c-4.651,0.441-8.065,4.57-7.625,9.221l2.518,26.57H277.701l7.898-83.489h31.877
	c10.359,9.628,23.594,14.454,36.836,14.454c11.06,0,22.113-3.368,31.493-10.084l2.346,24.776c0.415,4.38,4.101,7.663,8.413,7.663
	c0.266,0,0.537-0.012,0.808-0.038c4.652-0.441,8.066-4.569,7.626-9.221l-3.441-36.326c10.93,5.494,19.955,8.245,27.174,8.244
	c5.805,0,10.449-1.773,13.985-5.31c13.876-13.876,6.771-37.754,2.475-48.59C452.915,231.522,457.119,219.691,457.119,207.208z
	 M105.055,321.034c0-20.821,16.939-37.759,37.759-37.759s37.759,16.939,37.759,37.759v57.108h-75.518V321.034z M125.246,435.713
	h9.114v34.504C131.046,460.607,127.976,449.013,125.246,435.713z M151.281,470.189v-34.476h9.101
	C157.656,448.999,154.59,460.585,151.281,470.189z M180.574,418.792h-29.293v-7.314c0-4.672-3.788-8.461-8.461-8.461
	s-8.461,3.788-8.461,8.461v7.314h-29.305v-23.729h75.518v23.729H180.574z M316.397,434.582c-3.108-15.366-5.101-29.729-6.186-38.639
	h15.523v74.199C322.324,460.256,319.169,448.293,316.397,434.582z M351.991,434.582c-2.773,13.708-5.927,25.668-9.336,35.555
	v-74.194h15.523C357.092,404.854,355.099,419.217,351.991,434.582z M370.611,147.658c11.371-5.829,21.13-14.359,28.431-24.747
	c0.047,9.6-0.282,20.011-1.28,30.398c-5.172,0.491-10.185,1.717-14.928,3.615C379.131,153.309,375.019,150.215,370.611,147.658z
	 M376.221,183.342c2.855-2.856,6.662-4.43,10.719-4.43c4.057,0,7.864,1.574,10.72,4.43c2.856,2.856,4.43,6.662,4.43,10.719
	c0,4.057-1.574,7.864-4.431,10.72c-2.855,2.856-6.662,4.43-10.719,4.43c-4.057,0-7.864-1.574-10.719-4.43h-0.001
	c-2.856-2.856-4.43-6.662-4.43-10.719C371.791,190.005,373.363,186.198,376.221,183.342z M273.914,78.115
	c0-13.69,4.52-26.345,12.145-36.551c5.401,5.807,13.995,13.964,25.698,21.794c7.937,5.311,17.989,10.887,30.006,15.323
	c-1.924,5.129,1.702,11.537,7.859,11.537c3.939,0,7.432-2.84,8.261-6.668c11.299,2.679,23.908,4.163,37.738,3.669
	c-4.409,29.425-29.84,52.066-60.468,52.088h-0.087C301.342,139.282,273.914,111.842,273.914,78.115z M286.362,201.317
	c0-24.863,20.222-45.089,45.078-45.089h3.625c0.015,0,0.029,0.001,0.044,0.001s0.029-0.001,0.044-0.001h4.398
	c10.366,0,20.241,3.539,28.167,9.898c-1.038,0.893-2.056,1.816-3.035,2.794l-48.657,48.657
	c-16.477,16.477-20.092,41.017-10.851,61.035h-18.813V201.317z M327.99,282.189c-7.031-7.031-10.904-16.38-10.904-26.323
	c0-9.944,3.873-19.292,10.904-26.324l27.8-27.801c1.375,5.636,4.263,10.804,8.464,15.005c6.052,6.052,14.109,9.386,22.685,9.386
	c8.576,0,16.632-3.333,22.683-9.386c6.053-6.052,9.387-14.109,9.387-22.686c0-8.577-3.333-16.632-9.386-22.684
	c-0.323-0.323-0.654-0.634-0.988-0.941c7.566,1.155,14.843,4.634,20.657,10.449c7.031,7.031,10.904,16.38,10.904,26.323
	c0,9.944-3.873,19.292-10.904,26.323l-31.668,31.668c-11.046-6.718-19.942-13.505-20.046-13.585
	c-3.706-2.84-9.017-2.139-11.861,1.57c-2.843,3.708-2.14,9.017,1.567,11.859c0.411,0.315,7.954,6.076,18.049,12.447l-3.497,3.497
	c-0.073,0.07-0.144,0.141-0.214,0.214l-0.987,0.987C366.121,296.703,342.504,296.703,327.99,282.189z M430.751,277.729
	c-0.632,0.633-5.55,1.313-17.574-4.15l18.786-18.786C434.327,263.342,435.326,273.154,430.751,277.729z"/>
</svg>