<?xml version="1.0" standalone="no"?>
<!DOCTYPE svg PUBLIC "-//W3C//DTD SVG 20010904//EN"
 "http://www.w3.org/TR/2001/REC-SVG-20010904/DTD/svg10.dtd">
<svg version="1.0" xmlns="http://www.w3.org/2000/svg"
 width="441.000000pt" height="287.000000pt" viewBox="0 0 441.000000 287.000000"
 preserveAspectRatio="xMidYMid meet">

<g transform="translate(0.000000,287.000000) scale(0.100000,-0.100000)"
fill="#000000" stroke="none">
<path d="M0 1435 l0 -1435 2205 0 2205 0 0 1435 0 1435 -2205 0 -2205 0 0
-1435z m1102 978 c8 -10 23 -38 32 -63 10 -25 32 -81 51 -125 77 -186 135
-349 128 -356 -5 -5 -83 -10 -173 -11 l-165 -3 -3 -193 c-2 -177 -4 -193 -20
-190 -15 3 -18 23 -22 193 l-5 190 -172 3 c-196 3 -189 -2 -154 88 10 27 30
87 45 134 15 47 32 94 36 105 5 11 13 36 19 55 15 55 53 154 63 167 7 9 57 13
162 16 83 1 154 4 157 5 3 1 13 -6 21 -15z m2225 -76 c2 -2 5 -598 4 -655 l-1
-23 -152 3 -152 3 -6 25 c-12 47 -6 50 120 50 98 0 119 3 124 16 11 28 7 474
-4 495 -10 18 -23 19 -175 19 -107 0 -166 -4 -171 -11 -3 -6 -7 -71 -8 -145
-1 -109 -5 -137 -18 -150 -9 -9 -24 -14 -32 -11 -14 6 -16 32 -16 195 0 104 3
192 8 197 6 6 472 -1 479 -8z m-1377 -167 c17 -17 20 -33 20 -123 0 -69 4
-107 13 -116 10 -10 9 -15 -5 -25 -10 -7 -18 -16 -18 -19 0 -3 37 -4 83 0 51
3 93 1 111 -6 28 -11 29 -13 23 -71 -4 -48 -2 -62 10 -69 13 -7 9 -11 -18 -19
-51 -15 -191 -22 -231 -12 l-34 10 1 80 c2 79 -7 101 -25 58 -9 -23 -9 -23 -9
-2 -1 28 -61 44 -160 44 -67 0 -73 -2 -110 -35 -21 -19 -41 -35 -45 -35 -3 0
-6 12 -6 27 0 15 -9 37 -21 49 -18 19 -20 34 -20 125 0 57 0 109 1 116 0 6 7
19 16 27 13 13 46 16 210 16 181 0 195 -1 214 -20z m1197 -46 c4 -12 -56 -28
-66 -18 -9 8 31 35 48 32 8 -2 16 -8 18 -14z m-17 -158 c0 -13 7 -26 15 -30
10 -3 15 -19 15 -43 0 -47 -13 -68 -35 -60 -12 5 -15 17 -13 53 2 31 -1 48 -9
51 -8 3 -13 -4 -13 -16 0 -25 -16 -36 -24 -16 -3 8 -11 12 -19 9 -17 -6 -67
32 -67 52 0 15 16 19 24 5 12 -19 60 -19 85 0 31 25 41 24 41 -5z m782 -330
c6 -238 5 -333 -3 -342 -9 -11 -60 -14 -239 -14 -126 0 -235 3 -244 6 -13 5
-14 46 -10 332 3 180 7 333 10 340 3 10 56 12 241 10 l238 -3 7 -329z m-1699
287 c-7 -2 -19 -2 -25 0 -7 3 -2 5 12 5 14 0 19 -2 13 -5z m-363 -133 c0 -5
-4 -10 -10 -10 -5 0 -10 5 -10 10 0 6 5 10 10 10 6 0 10 -4 10 -10z m410 6 c0
-3 -4 -8 -10 -11 -5 -3 -10 -1 -10 4 0 6 5 11 10 11 6 0 10 -2 10 -4z m381
-110 c20 -8 39 -22 42 -31 4 -9 19 -15 37 -15 16 0 30 -4 30 -10 0 -5 4 -10
10 -10 5 0 9 10 7 23 -1 16 3 22 17 22 15 0 22 -12 32 -54 6 -29 17 -57 24
-61 14 -9 40 -2 40 10 0 4 12 15 26 25 20 13 28 14 40 4 26 -22 16 -56 -30
-96 -62 -55 -98 -110 -86 -133 6 -10 10 -35 10 -54 0 -45 22 -67 88 -91 51
-19 70 -45 33 -45 -11 0 -23 -4 -26 -10 -3 -5 -17 -10 -30 -10 -13 0 -27 -4
-30 -10 -9 -14 -188 -12 -222 2 -39 17 -113 67 -113 77 0 4 32 14 71 21 59 11
72 18 80 37 5 13 17 23 28 23 26 0 48 38 27 46 -8 3 -23 1 -32 -4 -17 -9 -51
0 -112 30 -29 15 -72 92 -72 132 0 17 -1 49 -1 71 -1 48 13 135 25 153 6 11
13 9 30 -7 12 -11 38 -27 57 -35z m-781 -6 c0 -5 -2 -10 -4 -10 -3 0 -8 5 -11
10 -3 6 -1 10 4 10 6 0 11 -4 11 -10z m353 -7 c-7 -2 -21 -2 -30 0 -10 3 -4 5
12 5 17 0 24 -2 18 -5z m-323 -43 c0 -5 -5 -10 -11 -10 -5 0 -7 5 -4 10 3 6 8
10 11 10 2 0 4 -4 4 -10z m604 -406 c9 -3 16 -12 16 -19 0 -16 82 -76 130 -96
59 -23 212 -18 295 11 39 13 77 29 85 36 46 38 134 11 146 -45 3 -14 9 -35 13
-46 4 -11 4 -38 -1 -60 -5 -22 -7 -52 -4 -66 3 -15 -1 -35 -9 -45 -22 -29 -18
-53 11 -66 15 -7 27 -23 31 -40 3 -15 10 -26 16 -25 16 3 45 -88 39 -120 -8
-42 -57 -65 -127 -60 -33 2 -67 7 -76 11 -23 10 -69 -34 -69 -67 0 -20 7 -30
25 -37 23 -9 25 -15 25 -70 l0 -60 94 0 c71 0 97 4 106 15 7 8 21 15 30 15 20
0 60 44 60 65 0 19 24 25 96 25 50 0 64 3 64 15 0 8 -4 15 -9 15 -13 0 -61
103 -61 131 0 12 15 38 33 59 17 21 47 63 66 95 29 49 42 61 90 82 31 14 65
36 77 50 l21 26 59 -23 c32 -13 73 -37 90 -53 17 -15 46 -36 65 -45 52 -26 74
-79 75 -182 1 -66 6 -95 23 -127 l21 -42 77 -3 78 -3 3 -162 2 -163 -69 0
c-80 0 -86 -5 -86 -70 l0 -45 -1843 -3 -1842 -2 0 55 c0 62 -1 63 -100 67
l-55 3 0 160 0 160 157 3 158 3 0 -25 c0 -29 16 -36 85 -35 55 1 75 12 75 40
0 18 9 19 125 19 l125 0 0 129 c0 145 4 154 67 149 l38 -3 1 -135 0 -135 175
-5 c160 -5 174 -6 177 -24 6 -30 -16 -36 -139 -36 -105 0 -117 -2 -122 -19 -2
-10 0 -26 5 -35 8 -14 43 -16 334 -16 l324 0 10 25 10 25 297 1 c291 1 361 7
370 35 2 6 -149 10 -389 11 -310 1 -406 -2 -456 -13 -74 -17 -110 -7 -92 26 9
17 21 20 79 20 l69 0 19 38 c24 44 75 82 114 82 33 0 101 22 184 60 33 15 77
33 97 40 20 8 41 24 47 37 6 13 18 26 26 29 8 3 19 24 25 45 6 21 38 87 72
146 34 60 72 128 85 153 23 42 96 120 113 120 5 0 15 -3 24 -6z m762 -302
c-12 -12 -18 8 -10 35 l8 28 4 -28 c2 -16 1 -31 -2 -35z m-2628 15 c6 -7 12
-51 14 -97 3 -94 20 -117 38 -51 6 23 15 41 20 41 17 0 28 -34 23 -74 -6 -45
-25 -66 -60 -66 -15 0 -28 -10 -38 -31 -13 -24 -20 -29 -38 -23 -29 9 -27 4
-33 65 -9 90 -12 99 -37 99 -34 0 -47 19 -47 68 0 36 3 43 18 40 11 -2 16 -11
14 -24 -4 -29 23 -51 43 -34 8 7 15 16 15 20 0 4 7 24 15 44 16 37 35 46 53
23z m2680 -440 c23 -28 -11 -86 -50 -87 -28 0 -24 64 4 84 27 19 33 20 46 3z"/>
<path d="M3495 1878 c-3 -8 -4 -126 -3 -263 l3 -250 170 0 170 0 0 260 0 260
-168 3 c-130 2 -169 0 -172 -10z m191 -127 c1 -26 10 -42 35 -65 29 -26 35
-39 42 -96 4 -36 9 -85 10 -110 l2 -45 -40 -7 c-22 -4 -71 -5 -108 -1 -60 5
-70 9 -78 30 -13 34 -9 145 6 173 l13 25 11 -27 c7 -18 15 -26 25 -22 21 8 30
32 31 85 3 70 13 101 33 97 12 -2 17 -14 18 -37z"/>
<path d="M2567 1673 c-13 -12 -7 -33 8 -33 8 0 15 9 15 20 0 20 -11 26 -23 13z"/>
<path d="M2556 1603 c-12 -13 -6 -53 9 -53 9 0 15 9 15 24 0 26 -12 40 -24 29z"/>
<path d="M2714 1585 c-7 -18 3 -35 22 -35 8 0 14 10 14 25 0 27 -27 35 -36 10z"/>
<path d="M2775 1360 c-3 -5 -2 -10 4 -10 5 0 13 5 16 10 3 6 2 10 -4 10 -5 0
-13 -4 -16 -10z"/>
<path d="M3540 746 c0 -9 7 -16 16 -16 17 0 14 22 -4 28 -7 2 -12 -3 -12 -12z"/>
<path d="M3697 743 c-14 -13 -6 -33 13 -33 13 0 20 7 20 20 0 19 -20 27 -33
13z"/>
<path d="M3478 673 c-21 -5 -23 -26 -4 -42 9 -8 21 -8 40 -1 29 11 35 35 10
44 -17 6 -19 6 -46 -1z"/>
<path d="M3598 588 c-25 -20 -12 -87 18 -94 12 -3 28 -3 35 1 21 14 -5 105
-30 105 -4 0 -14 -6 -23 -12z"/>
<path d="M2485 500 c-7 -12 2 -30 16 -30 12 0 12 27 0 35 -5 3 -12 1 -16 -5z"/>
</g>
</svg>
